<svg width="100" height="30" fill="none" xmlns="http://www.w3.org/2000/svg"><path fill-rule="evenodd" clip-rule="evenodd" d="M76.035.718v24.558c-.014.4.135.787.414 1.077.279.29.664.456 1.07.463h.44a1.54 1.54 0 001.092-.453 1.5 1.5 0 00.437-1.087L79.485.718h2.888v25.207c.01 1.898-1.525 3.452-3.448 3.49h-2.202a3.543 3.543 0 01-2.522-1.008 3.45 3.45 0 01-1.039-2.482V.718h2.873zM96.513.434C98.437.474 100 2.26 100 4.208v2.279a.729.729 0 01-.532.697l-2.39.676V4.576a1.52 1.52 0 00-1.528-1.51 1.52 1.52 0 00-1.53 1.51v2.717c0 1.666 1.242 3.816 1.242 3.816l3.441 6.553c1.404 2.6 1.282 4.508 1.282 4.508v3.622c.01.953-.364 1.87-1.04 2.55a3.654 3.654 0 01-2.567 1.073h-1.804c-1.95-.109-3.476-1.696-3.484-3.623v-4.06c0-.324.217-.608.532-.698l2.395-.676v4.957a1.52 1.52 0 001.55 1.49 1.519 1.519 0 001.509-1.53v-3.247c0-1.664-1.242-3.855-1.242-3.855l-3.447-6.536c-1.404-2.6-1.285-4.507-1.285-4.507V4.208c0-1.987 1.606-3.774 3.61-3.774h1.801zm-54.354 0c1.95.103 3.477 1.695 3.475 3.623v21.786c-.025 1.908-1.545 3.47-3.475 3.572h-2.206c-1.978-.034-3.573-1.61-3.606-3.563V4.057a3.56 3.56 0 011.04-2.551A3.654 3.654 0 0139.954.434h2.206zM9.087.718L8.39 3.115a.733.733 0 01-.706.525h-4.61v9.135H7.86l-.694 2.4a.733.733 0 01-.707.522H3.074v10.551h6.013l-.676 2.358a.735.735 0 01-.706.525H.189V.718h8.898zm51.317 0c1.986.017 3.586 1.612 3.582 3.571v21.27c.004 1.96-1.596 3.555-3.582 3.572h-5.573V.718h5.573zM22.488 9.853L25.143.718h2.945l-4.126 14.206 4.127 14.207h-2.946l-2.655-9.135-2.655 9.135h-2.946l4.127-14.207L16.887.718h2.946l2.655 9.135zm18.704 17.005a1.564 1.564 0 001.1-.475c.288-.297.443-.696.43-1.107V4.573c.013-.41-.142-.81-.43-1.107a1.564 1.564 0 00-1.1-.475h-.44a1.594 1.594 0 00-1.53 1.582v20.703a1.595 1.595 0 001.53 1.582h.44zm18.402-.601c.81 0 1.53-.414 1.53-1.51V5.101c0-1.053-.726-1.461-1.53-1.461h-1.881v22.617h1.88z" fill="#3A3A44"/></svg>