<svg width="41" height="40" fill="none" xmlns="http://www.w3.org/2000/svg"><path d="M28.333 20L40.41 31.955h-4.262a2.77 2.77 0 01-1.947-.8L22.962 20 34.21 8.836a2.77 2.77 0 011.947-.79h4.252L28.333 20zM6.199 8.836a2.77 2.77 0 00-1.947-.79H0L12.077 20 0 31.955h4.261a2.774 2.774 0 001.947-.8L17.45 20 6.2 8.836zm14.006 13.891L8.927 33.864a2.714 2.714 0 00-.8 1.927V40l12.078-11.954L32.282 40v-4.21a2.713 2.713 0 00-.799-1.926L20.205 22.727zm0-5.454L31.483 6.136c.513-.512.8-1.205.799-1.927V0L20.205 11.954 8.128 0v4.21a2.714 2.714 0 00.799 1.926l11.278 11.137z" fill="url(#paint0_linear)"/><defs><linearGradient id="paint0_linear" x1="0" y1="20" x2="40.41" y2="20" gradientUnits="userSpaceOnUse"><stop stop-color="#EC6F66"/><stop offset="1" stop-color="#F3A183"/></linearGradient></defs></svg>