<svg width="50" height="50" fill="none" xmlns="http://www.w3.org/2000/svg"><path fill-rule="evenodd" clip-rule="evenodd" d="M25 50c13.807 0 25-11.193 25-25S38.807 0 25 0 0 11.193 0 25s11.193 25 25 25z" fill="#F5F5F5"/><path fill-rule="evenodd" clip-rule="evenodd" d="M26.064 32.82v-8.161h2.252l.299-2.812h-2.551l.003-1.408c0-.733.07-1.126 1.123-1.126h1.41V16.5h-2.253c-2.706 0-3.66 1.364-3.66 3.659v1.688H21v2.812h1.687v8.16h3.377z" fill="url(#paint0_linear)"/><mask id="a" maskUnits="userSpaceOnUse" x="21" y="16" width="8" height="17"><path fill-rule="evenodd" clip-rule="evenodd" d="M26.064 32.82v-8.161h2.252l.299-2.812h-2.551l.003-1.408c0-.733.07-1.126 1.123-1.126h1.41V16.5h-2.253c-2.706 0-3.66 1.364-3.66 3.659v1.688H21v2.812h1.687v8.16h3.377z" fill="#fff"/></mask><g mask="url(#a)"><path fill="url(#paint1_linear)" d="M10 10h30v30H10z"/></g><defs><linearGradient id="paint0_linear" x1="21" y1="24.66" x2="28.615" y2="24.66" gradientUnits="userSpaceOnUse"><stop stop-color="#EC6F66"/><stop offset="1" stop-color="#F3A183"/></linearGradient><linearGradient id="paint1_linear" x1="10" y1="25" x2="40" y2="25" gradientUnits="userSpaceOnUse"><stop stop-color="#EC6F66"/><stop offset="1" stop-color="#F3A183"/></linearGradient></defs></svg>