<svg width="46" height="90" fill="none" xmlns="http://www.w3.org/2000/svg"><path opacity=".01" fill-rule="evenodd" clip-rule="evenodd" d="M45 87.5a2 2 0 01-2 2H3a2 2 0 01-2-2v-85a2 2 0 012-2h40a2 2 0 012 2v85z" fill="#3A3A44"/><path fill-rule="evenodd" clip-rule="evenodd" d="M30.398 45.001L13.236 62.162a1.072 1.072 0 000 1.521 1.072 1.072 0 001.521 0l17.926-17.925a1.072 1.072 0 000-1.522L14.758 26.32A1.082 1.082 0 0014 26c-.27 0-.55.104-.756.319a1.072 1.072 0 000 1.52l17.153 17.162z" fill="url(#paint0_linear)"/><defs><linearGradient id="paint0_linear" x1="33" y1="45" x2="12.92" y2="45" gradientUnits="userSpaceOnUse"><stop stop-color="#EC6F66"/><stop offset="1" stop-color="#F3A183"/></linearGradient></defs></svg>