<svg width="28" height="30" fill="none" xmlns="http://www.w3.org/2000/svg"><path fill-rule="evenodd" clip-rule="evenodd" d="M14 25c5.113 0 9.259-4.477 9.259-10s-4.146-10-9.26-10C8.887 5 4.74 9.477 4.74 15S8.886 25 14 25zm0-2c-4.091 0-7.408-3.582-7.408-8S9.91 7 14 7s7.407 3.582 7.407 8-3.316 8-7.407 8zm-4.427-7.625a.88.88 0 011.301-.156l1.64 1.416 4.507-5.31a.879.879 0 011.308-.062c.377.373.402 1.006.057 1.413l-5.678 6.689-2.99-2.584c-.4-.345-.464-.974-.145-1.406z" fill="#3A3A44"/><mask id="a" maskUnits="userSpaceOnUse" x="4" y="5" width="20" height="20"><path fill-rule="evenodd" clip-rule="evenodd" d="M14 25c5.113 0 9.259-4.477 9.259-10s-4.146-10-9.26-10C8.887 5 4.74 9.477 4.74 15S8.886 25 14 25zm0-2c-4.091 0-7.408-3.582-7.408-8S9.91 7 14 7s7.407 3.582 7.407 8-3.316 8-7.407 8zm-4.427-7.625a.88.88 0 011.301-.156l1.64 1.416 4.507-5.31a.879.879 0 011.308-.062c.377.373.402 1.006.057 1.413l-5.678 6.689-2.99-2.584c-.4-.345-.464-.974-.145-1.406z" fill="#fff"/></mask><g mask="url(#a)"><path fill="url(#paint0_linear)" d="M4.74 5h18.518v20H4.74z"/></g><defs><linearGradient id="paint0_linear" x1="4.74" y1="15" x2="23.259" y2="15" gradientUnits="userSpaceOnUse"><stop stop-color="#EC6F66"/><stop offset="1" stop-color="#F3A183"/></linearGradient></defs></svg>