<svg width="31" height="13" fill="none" xmlns="http://www.w3.org/2000/svg"><path d="M4.377 12.16c-1.376 0-2.442-.368-3.2-1.104C.431 10.309.057 9.184.057 7.68V1.184c0-.117.032-.208.096-.272A.37.37 0 01.425.8h.816c.118 0 .208.037.272.112a.339.339 0 01.112.272v6.528c0 1.024.24 1.792.72 2.304.48.512 1.158.768 2.032.768.875 0 1.552-.256 2.032-.768s.72-1.28.72-2.304V1.184c0-.117.032-.208.096-.272A.37.37 0 017.497.8h.832a.32.32 0 01.256.112.37.37 0 01.112.272V7.68c0 1.504-.378 2.63-1.136 3.376-.746.736-1.808 1.104-3.184 1.104zm10.732 0c-.885 0-1.653-.139-2.304-.416-.64-.277-1.13-.64-1.472-1.088-.341-.459-.523-.95-.544-1.472 0-.085.032-.16.096-.224a.352.352 0 01.256-.112h.816c.203 0 .341.107.416.32.096.448.368.832.816 1.152.459.32 1.099.48 1.92.48.886 0 1.552-.155 2-.464.448-.32.672-.763.672-1.328 0-.363-.112-.656-.336-.88-.213-.224-.533-.421-.96-.592a24.903 24.903 0 00-1.92-.64c-.832-.235-1.493-.485-1.984-.752-.49-.267-.858-.597-1.104-.992-.245-.395-.368-.89-.368-1.488 0-.576.155-1.093.464-1.552.32-.459.774-.816 1.36-1.072.587-.267 1.286-.4 2.096-.4.832 0 1.547.15 2.144.448.598.288 1.05.656 1.36 1.104.31.448.475.896.496 1.344 0 .085-.032.16-.096.224-.053.064-.133.096-.24.096h-.848c-.224 0-.362-.101-.416-.304-.064-.448-.314-.816-.752-1.104C16.24 2.149 15.691 2 15.03 2c-.725 0-1.296.139-1.712.416-.416.277-.624.688-.624 1.232 0 .363.096.661.288.896.203.235.507.443.912.624.405.17.997.368 1.776.592.907.245 1.622.501 2.144.768.523.256.912.581 1.168.976.256.384.384.875.384 1.472 0 .992-.384 1.77-1.152 2.336-.768.565-1.803.848-3.104.848zm6.859-.16a.404.404 0 01-.273-.096.404.404 0 01-.096-.272V1.184c0-.117.032-.208.096-.272A.37.37 0 0121.968.8h3.631c1.611 0 2.774.363 3.488 1.088.715.715 1.088 1.797 1.12 3.248.011.31.017.725.017 1.248s-.006.944-.017 1.264c-.032 1.013-.202 1.84-.512 2.48a2.903 2.903 0 01-1.424 1.408c-.65.31-1.514.464-2.591.464h-3.712zm3.631-1.36c.736 0 1.318-.101 1.744-.304.438-.203.753-.523.945-.96.202-.448.314-1.045.335-1.792.022-.64.032-1.04.032-1.2 0-.17-.01-.565-.032-1.184-.02-1.056-.271-1.824-.752-2.304-.48-.49-1.263-.736-2.351-.736h-2.352v8.48h2.431z" fill="url(#paint0_linear)"/><defs><linearGradient id="paint0_linear" x1="-2" y1="7" x2="32" y2="7" gradientUnits="userSpaceOnUse"><stop stop-color="#EC6F66"/><stop offset="1" stop-color="#F3A183"/></linearGradient></defs></svg>