<svg width="50" height="50" fill="none" xmlns="http://www.w3.org/2000/svg"><path fill-rule="evenodd" clip-rule="evenodd" d="M25 50c13.807 0 25-11.193 25-25S38.807 0 25 0 0 11.193 0 25s11.193 25 25 25z" fill="#F5F5F5"/><path fill-rule="evenodd" clip-rule="evenodd" d="M33.105 19.97c.539.56.715 1.834.715 1.834S34 23.3 34 24.796v1.402c0 1.496-.18 2.991-.18 2.991s-.176 1.274-.715 1.835c-.617.663-1.301.732-1.688.77l-.116.013C28.782 31.994 25 32 25 32s-4.68-.044-6.12-.186a3.91 3.91 0 00-.245-.035c-.456-.056-1.172-.144-1.74-.755-.54-.561-.715-1.835-.715-1.835S16 27.694 16 26.198v-1.402c0-1.496.18-2.992.18-2.992s.175-1.273.715-1.834c.618-.665 1.303-.732 1.69-.77l.114-.013C21.218 19 24.996 19 24.996 19h.008s3.778 0 6.297.187l.115.012c.386.039 1.071.106 1.689.77zm-9.964 2.734v5.193l4.863-2.587-4.863-2.606z" fill="url(#paint0_linear)"/><mask id="a" maskUnits="userSpaceOnUse" x="16" y="19" width="18" height="13"><path fill-rule="evenodd" clip-rule="evenodd" d="M33.105 19.97c.539.56.715 1.834.715 1.834S34 23.3 34 24.796v1.402c0 1.496-.18 2.991-.18 2.991s-.176 1.274-.715 1.835c-.617.663-1.301.732-1.688.77l-.116.013C28.782 31.994 25 32 25 32s-4.68-.044-6.12-.186a3.91 3.91 0 00-.245-.035c-.456-.056-1.172-.144-1.74-.755-.54-.561-.715-1.835-.715-1.835S16 27.694 16 26.198v-1.402c0-1.496.18-2.992.18-2.992s.175-1.273.715-1.834c.618-.665 1.303-.732 1.69-.77l.114-.013C21.218 19 24.996 19 24.996 19h.008s3.778 0 6.297.187l.115.012c.386.039 1.071.106 1.689.77zm-9.964 2.734v5.193l4.863-2.587-4.863-2.606z" fill="#fff"/></mask><g mask="url(#a)"><path fill="url(#paint1_linear)" d="M10 10h30v30H10z"/></g><defs><linearGradient id="paint0_linear" x1="16" y1="25.5" x2="34" y2="25.5" gradientUnits="userSpaceOnUse"><stop stop-color="#EC6F66"/><stop offset="1" stop-color="#F3A183"/></linearGradient><linearGradient id="paint1_linear" x1="10" y1="25" x2="40" y2="25" gradientUnits="userSpaceOnUse"><stop stop-color="#EC6F66"/><stop offset="1" stop-color="#F3A183"/></linearGradient></defs></svg>