<svg width="12" height="13" fill="none" xmlns="http://www.w3.org/2000/svg"><path fill-rule="evenodd" clip-rule="evenodd" d="M9.027 5.596l-8.156.066A.88.88 0 000 6.557a.88.88 0 00.87.894l8.15-.066-3.056 3.147a.909.909 0 000 1.265.852.852 0 001.232 0l4.546-4.67a.913.913 0 00.258-.63.885.885 0 00-.258-.63L7.189 1.19a.852.852 0 00-1.232 0 .907.907 0 00.007 1.259l3.063 3.147z" fill="url(#paint0_linear)"/><defs><linearGradient id="paint0_linear" x1="6" y1="12.061" x2="6" y2=".927" gradientUnits="userSpaceOnUse"><stop stop-color="#EC6F66"/><stop offset="1" stop-color="#F3A183"/></linearGradient></defs></svg>