<svg width="28" height="30" fill="none" xmlns="http://www.w3.org/2000/svg"><path fill-rule="evenodd" clip-rule="evenodd" d="M14 25c5.113 0 9.259-4.477 9.259-10s-4.146-10-9.26-10C8.887 5 4.74 9.477 4.74 15S8.886 25 14 25zm0-2c-4.091 0-7.408-3.582-7.408-8S9.91 7 14 7s7.407 3.582 7.407 8-3.316 8-7.407 8zm2.123-11.707L14 13.586l-2.123-2.293a.878.878 0 00-1.31 0 1.057 1.057 0 000 1.414L12.69 15l-2.123 2.293a1.057 1.057 0 000 1.414.88.88 0 001.31 0L14 16.414l2.123 2.293a.88.88 0 001.31 0 1.057 1.057 0 000-1.414L15.308 15l2.123-2.293a1.057 1.057 0 000-1.414.878.878 0 00-1.31 0z" fill="#3A3A44"/><mask id="a" maskUnits="userSpaceOnUse" x="4" y="5" width="20" height="20"><path fill-rule="evenodd" clip-rule="evenodd" d="M14 25c5.113 0 9.259-4.477 9.259-10s-4.146-10-9.26-10C8.887 5 4.74 9.477 4.74 15S8.886 25 14 25zm0-2c-4.091 0-7.408-3.582-7.408-8S9.91 7 14 7s7.407 3.582 7.407 8-3.316 8-7.407 8zm2.123-11.707L14 13.586l-2.123-2.293a.878.878 0 00-1.31 0 1.057 1.057 0 000 1.414L12.69 15l-2.123 2.293a1.057 1.057 0 000 1.414.88.88 0 001.31 0L14 16.414l2.123 2.293a.88.88 0 001.31 0 1.057 1.057 0 000-1.414L15.308 15l2.123-2.293a1.057 1.057 0 000-1.414.878.878 0 00-1.31 0z" fill="#fff"/></mask><g mask="url(#a)"><path fill="#9696A0" d="M4.74 5h18.518v20H4.74z"/></g></svg>