<svg width="30" height="30" fill="none" xmlns="http://www.w3.org/2000/svg"><path fill-rule="evenodd" clip-rule="evenodd" d="M20.82 19.406a8 8 0 10-1.414 1.414l2.387 2.387a1 1 0 001.414-1.414l-2.387-2.387zM14.5 20.5a6 6 0 110-12 6 6 0 010 12z" fill="#000"/><mask id="a" maskUnits="userSpaceOnUse" x="6" y="6" width="18" height="18"><path fill-rule="evenodd" clip-rule="evenodd" d="M20.82 19.406a8 8 0 10-1.414 1.414l2.387 2.387a1 1 0 001.414-1.414l-2.387-2.387zM14.5 20.5a6 6 0 110-12 6 6 0 010 12z" fill="#fff"/></mask><g mask="url(#a)"><path fill="#222" d="M5 5h20v20H5z"/></g></svg>