<svg width="18" height="18" fill="none" xmlns="http://www.w3.org/2000/svg"><path fill-rule="evenodd" clip-rule="evenodd" d="M14.82 13.406a8 8 0 10-1.414 1.414l2.387 2.387a1 1 0 001.414-1.414l-2.387-2.387zM8.5 14.5a6 6 0 110-12 6 6 0 010 12z" fill="#000"/><mask id="a" maskUnits="userSpaceOnUse" x="0" y="0" width="18" height="18"><path fill-rule="evenodd" clip-rule="evenodd" d="M14.82 13.406a8 8 0 10-1.414 1.414l2.387 2.387a1 1 0 001.414-1.414l-2.387-2.387zM8.5 14.5a6 6 0 110-12 6 6 0 010 12z" fill="#fff"/></mask><g mask="url(#a)"><path fill="#222" d="M-1-1h20v20H-1z"/></g></svg>