<svg width="50" height="50" fill="none" xmlns="http://www.w3.org/2000/svg"><path fill-rule="evenodd" clip-rule="evenodd" d="M25 50c13.807 0 25-11.193 25-25S38.807 0 25 0 0 11.193 0 25s11.193 25 25 25z" fill="#F5F5F5"/><path fill-rule="evenodd" clip-rule="evenodd" d="M24.55 22.192l.032.52-.524-.064c-1.91-.244-3.578-1.07-4.995-2.458l-.692-.688-.178.508c-.378 1.133-.137 2.33.65 3.135.42.445.325.509-.399.244-.252-.085-.472-.148-.493-.116-.073.074.178 1.038.378 1.419.273.53.829 1.049 1.437 1.356l.514.244-.608.01c-.588 0-.609.01-.546.233.21.689 1.039 1.42 1.962 1.737l.65.223-.566.339a5.906 5.906 0 01-2.812.784c-.472.01-.86.053-.86.084 0 .106 1.28.7 2.025.932 2.235.689 4.89.392 6.883-.783 1.416-.837 2.833-2.5 3.494-4.11.357-.858.713-2.426.713-3.178 0-.487.032-.55.62-1.133.346-.34.67-.71.734-.816.105-.201.094-.201-.44-.021-.893.317-1.019.275-.578-.201.325-.34.713-.954.713-1.134 0-.032-.157.021-.335.117-.19.105-.609.264-.924.36l-.566.18-.514-.35c-.284-.19-.682-.402-.892-.466-.535-.148-1.354-.127-1.836.043-1.312.476-2.14 1.705-2.046 3.05z" fill="url(#paint0_linear)"/><mask id="a" maskUnits="userSpaceOnUse" x="17" y="19" width="16" height="12"><path fill-rule="evenodd" clip-rule="evenodd" d="M24.55 22.192l.032.52-.524-.064c-1.91-.244-3.578-1.07-4.995-2.458l-.692-.688-.178.508c-.378 1.133-.137 2.33.65 3.135.42.445.325.509-.399.244-.252-.085-.472-.148-.493-.116-.073.074.178 1.038.378 1.419.273.53.829 1.049 1.437 1.356l.514.244-.608.01c-.588 0-.609.01-.546.233.21.689 1.039 1.42 1.962 1.737l.65.223-.566.339a5.906 5.906 0 01-2.812.784c-.472.01-.86.053-.86.084 0 .106 1.28.7 2.025.932 2.235.689 4.89.392 6.883-.783 1.416-.837 2.833-2.5 3.494-4.11.357-.858.713-2.426.713-3.178 0-.487.032-.55.62-1.133.346-.34.67-.71.734-.816.105-.201.094-.201-.44-.021-.893.317-1.019.275-.578-.201.325-.34.713-.954.713-1.134 0-.032-.157.021-.335.117-.19.105-.609.264-.924.36l-.566.18-.514-.35c-.284-.19-.682-.402-.892-.466-.535-.148-1.354-.127-1.836.043-1.312.476-2.14 1.705-2.046 3.05z" fill="#fff"/></mask><g mask="url(#a)"><path fill="url(#paint1_linear)" d="M10 10h30v30H10z"/></g><defs><linearGradient id="paint0_linear" x1="17.5" y1="25" x2="32.021" y2="25" gradientUnits="userSpaceOnUse"><stop stop-color="#EC6F66"/><stop offset="1" stop-color="#F3A183"/></linearGradient><linearGradient id="paint1_linear" x1="10" y1="25" x2="40" y2="25" gradientUnits="userSpaceOnUse"><stop stop-color="#EC6F66"/><stop offset="1" stop-color="#F3A183"/></linearGradient></defs></svg>