<svg width="28" height="30" viewBox="0 0 28 30" fill="none" xmlns="http://www.w3.org/2000/svg">
<path fill-rule="evenodd" clip-rule="evenodd" d="M13.9997 25C19.1135 25 23.259 20.5228 23.259 15C23.259 9.47715 19.1135 5 13.9997 5C8.88599 5 4.74048 9.47715 4.74048 15C4.74048 20.5228 8.88599 25 13.9997 25ZM13.9997 23C9.90874 23 6.59233 19.4183 6.59233 15C6.59233 10.5817 9.90874 7 13.9997 7C18.0907 7 21.4071 10.5817 21.4071 15C21.4071 19.4183 18.0907 23 13.9997 23ZM16.1228 11.2929L13.9997 13.5858L11.8767 11.2929C11.5151 10.9024 10.9288 10.9024 10.5672 11.2929C10.2056 11.6834 10.2056 12.3166 10.5672 12.7071L12.6903 15L10.5672 17.2929C10.2056 17.6834 10.2056 18.3166 10.5672 18.7071C10.9288 19.0976 11.5151 19.0976 11.8767 18.7071L13.9997 16.4142L16.1228 18.7071C16.4844 19.0976 17.0706 19.0976 17.4322 18.7071C17.7938 18.3166 17.7938 17.6834 17.4322 17.2929L15.3092 15L17.4322 12.7071C17.7938 12.3166 17.7938 11.6834 17.4322 11.2929C17.0706 10.9024 16.4844 10.9024 16.1228 11.2929Z" fill="#3A3A44"/>
<mask id="mask0" mask-type="alpha" maskUnits="userSpaceOnUse" x="4" y="5" width="20" height="20">
<path fill-rule="evenodd" clip-rule="evenodd" d="M13.9997 25C19.1135 25 23.259 20.5228 23.259 15C23.259 9.47715 19.1135 5 13.9997 5C8.88599 5 4.74048 9.47715 4.74048 15C4.74048 20.5228 8.88599 25 13.9997 25ZM13.9997 23C9.90874 23 6.59233 19.4183 6.59233 15C6.59233 10.5817 9.90874 7 13.9997 7C18.0907 7 21.4071 10.5817 21.4071 15C21.4071 19.4183 18.0907 23 13.9997 23ZM16.1228 11.2929L13.9997 13.5858L11.8767 11.2929C11.5151 10.9024 10.9288 10.9024 10.5672 11.2929C10.2056 11.6834 10.2056 12.3166 10.5672 12.7071L12.6903 15L10.5672 17.2929C10.2056 17.6834 10.2056 18.3166 10.5672 18.7071C10.9288 19.0976 11.5151 19.0976 11.8767 18.7071L13.9997 16.4142L16.1228 18.7071C16.4844 19.0976 17.0706 19.0976 17.4322 18.7071C17.7938 18.3166 17.7938 17.6834 17.4322 17.2929L15.3092 15L17.4322 12.7071C17.7938 12.3166 17.7938 11.6834 17.4322 11.2929C17.0706 10.9024 16.4844 10.9024 16.1228 11.2929Z" fill="white"/>
</mask>
<g mask="url(#mask0)">
<rect x="4.74048" y="5" width="18.5185" height="20" fill="#9696A0"/>
</g>
</svg>
