<svg width="28" height="30" viewBox="0 0 28 30" fill="none" xmlns="http://www.w3.org/2000/svg">
<path fill-rule="evenodd" clip-rule="evenodd" d="M13.9997 25C19.1135 25 23.259 20.5228 23.259 15C23.259 9.47715 19.1135 5 13.9997 5C8.88599 5 4.74048 9.47715 4.74048 15C4.74048 20.5228 8.88599 25 13.9997 25ZM13.9997 23C9.90874 23 6.59233 19.4183 6.59233 15C6.59233 10.5817 9.90874 7 13.9997 7C18.0907 7 21.4071 10.5817 21.4071 15C21.4071 19.4183 18.0907 23 13.9997 23ZM9.57301 15.3753C9.89246 14.944 10.4751 14.8741 10.8745 15.2191L12.5133 16.6351L17.0209 11.3243C17.3664 10.9172 17.9521 10.8897 18.3291 11.2628C18.7061 11.636 18.7315 12.2686 18.386 12.6757L12.7084 19.3649L9.71761 16.7809C9.31829 16.4359 9.25355 15.8066 9.57301 15.3753Z" fill="#3A3A44"/>
<mask id="mask0" mask-type="alpha" maskUnits="userSpaceOnUse" x="4" y="5" width="20" height="20">
<path fill-rule="evenodd" clip-rule="evenodd" d="M13.9997 25C19.1135 25 23.259 20.5228 23.259 15C23.259 9.47715 19.1135 5 13.9997 5C8.88599 5 4.74048 9.47715 4.74048 15C4.74048 20.5228 8.88599 25 13.9997 25ZM13.9997 23C9.90874 23 6.59233 19.4183 6.59233 15C6.59233 10.5817 9.90874 7 13.9997 7C18.0907 7 21.4071 10.5817 21.4071 15C21.4071 19.4183 18.0907 23 13.9997 23ZM9.57301 15.3753C9.89246 14.944 10.4751 14.8741 10.8745 15.2191L12.5133 16.6351L17.0209 11.3243C17.3664 10.9172 17.9521 10.8897 18.3291 11.2628C18.7061 11.636 18.7315 12.2686 18.386 12.6757L12.7084 19.3649L9.71761 16.7809C9.31829 16.4359 9.25355 15.8066 9.57301 15.3753Z" fill="white"/>
</mask>
<g mask="url(#mask0)">
<rect x="4.74048" y="5" width="18.5185" height="20" fill="url(#paint0_linear)"/>
</g>
<defs>
<linearGradient id="paint0_linear" x1="4.74048" y1="15" x2="23.259" y2="15" gradientUnits="userSpaceOnUse">
<stop stop-color="#EC6F66"/>
<stop offset="1" stop-color="#F3A183"/>
</linearGradient>
</defs>
</svg>
