<svg width="41" height="40" viewBox="0 0 41 40" fill="none" xmlns="http://www.w3.org/2000/svg">
<path d="M28.3327 19.9999L40.4099 31.9547H36.1484C35.4179 31.9539 34.7176 31.666 34.2015 31.1545L22.9602 19.9999L34.2105 8.83639C34.7282 8.32805 35.4285 8.04373 36.1577 8.04534H40.4099L28.3327 19.9999ZM6.19936 8.83639C5.68162 8.32805 4.98131 8.04373 4.25217 8.04534H0L12.0771 19.9999L0 31.9547H4.26142C4.99192 31.9539 5.69223 31.666 6.20834 31.1545L17.4497 19.9999L6.19936 8.83639ZM20.2049 22.7273L8.92685 33.8636C8.41346 34.376 8.12616 35.069 8.12779 35.7909V40L20.2049 28.0455L32.2818 40V35.7909C32.2837 35.069 31.9964 34.376 31.483 33.8636L20.2049 22.7273ZM20.2049 17.2727L31.483 6.13639C31.9964 5.62401 32.2837 4.93097 32.2818 4.20912V0L20.2049 11.9545L8.12779 0V4.20912C8.12616 4.93097 8.41346 5.62401 8.92685 6.13639L20.2049 17.2727Z" fill="url(#paint0_linear)"/>
<defs>
<linearGradient id="paint0_linear" x1="0" y1="20" x2="40.4099" y2="20" gradientUnits="userSpaceOnUse">
<stop stop-color="#EC6F66"/>
<stop offset="1" stop-color="#F3A183"/>
</linearGradient>
</defs>
</svg>
