<svg width="30" height="30" viewBox="0 0 30 30" fill="none" xmlns="http://www.w3.org/2000/svg">
<path fill-rule="evenodd" clip-rule="evenodd" d="M20.8199 19.4056C21.8729 18.051 22.5 16.3487 22.5 14.5C22.5 10.0817 18.9183 6.5 14.5 6.5C10.0817 6.5 6.5 10.0817 6.5 14.5C6.5 18.9183 10.0817 22.5 14.5 22.5C16.3487 22.5 18.051 21.8729 19.4056 20.8199L21.7929 23.2071C22.1834 23.5976 22.8166 23.5976 23.2071 23.2071C23.5976 22.8166 23.5976 22.1834 23.2071 21.7929L20.8199 19.4056ZM14.5 20.5C11.1863 20.5 8.5 17.8137 8.5 14.5C8.5 11.1863 11.1863 8.5 14.5 8.5C17.8137 8.5 20.5 11.1863 20.5 14.5C20.5 17.8137 17.8137 20.5 14.5 20.5Z" fill="black"/>
<mask id="mask0" mask-type="alpha" maskUnits="userSpaceOnUse" x="6" y="6" width="18" height="18">
<path fill-rule="evenodd" clip-rule="evenodd" d="M20.8199 19.4056C21.8729 18.051 22.5 16.3487 22.5 14.5C22.5 10.0817 18.9183 6.5 14.5 6.5C10.0817 6.5 6.5 10.0817 6.5 14.5C6.5 18.9183 10.0817 22.5 14.5 22.5C16.3487 22.5 18.051 21.8729 19.4056 20.8199L21.7929 23.2071C22.1834 23.5976 22.8166 23.5976 23.2071 23.2071C23.5976 22.8166 23.5976 22.1834 23.2071 21.7929L20.8199 19.4056ZM14.5 20.5C11.1863 20.5 8.5 17.8137 8.5 14.5C8.5 11.1863 11.1863 8.5 14.5 8.5C17.8137 8.5 20.5 11.1863 20.5 14.5C20.5 17.8137 17.8137 20.5 14.5 20.5Z" fill="white"/>
</mask>
<g mask="url(#mask0)">
<rect x="5" y="5" width="20" height="20" fill="#222222"/>
</g>
</svg>
