<svg width="31" height="13" viewBox="0 0 31 13" fill="none" xmlns="http://www.w3.org/2000/svg">
<path d="M4.3773 12.16C3.0013 12.16 1.93463 11.792 1.1773 11.056C0.430629 10.3093 0.0572953 9.184 0.0572953 7.68V1.184C0.0572953 1.06667 0.0892953 0.976 0.153295 0.912C0.227962 0.837333 0.318629 0.799999 0.425295 0.799999H1.2413C1.35863 0.799999 1.4493 0.837333 1.5133 0.912C1.58796 0.976 1.6253 1.06667 1.6253 1.184V7.712C1.6253 8.736 1.8653 9.504 2.3453 10.016C2.8253 10.528 3.50263 10.784 4.3773 10.784C5.25196 10.784 5.9293 10.528 6.4093 10.016C6.8893 9.504 7.1293 8.736 7.1293 7.712V1.184C7.1293 1.06667 7.1613 0.976 7.2253 0.912C7.29996 0.837333 7.39063 0.799999 7.4973 0.799999H8.3293C8.43596 0.799999 8.5213 0.837333 8.5853 0.912C8.65996 0.986666 8.6973 1.07733 8.6973 1.184V7.68C8.6973 9.184 8.31863 10.3093 7.5613 11.056C6.81463 11.792 5.7533 12.16 4.3773 12.16ZM15.1092 12.16C14.2239 12.16 13.4559 12.0213 12.8052 11.744C12.1652 11.4667 11.6745 11.104 11.3332 10.656C10.9919 10.1973 10.8105 9.70667 10.7892 9.184C10.7892 9.09867 10.8212 9.024 10.8852 8.96C10.9599 8.88533 11.0452 8.848 11.1412 8.848H11.9572C12.1599 8.848 12.2985 8.95467 12.3732 9.168C12.4692 9.616 12.7412 10 13.1892 10.32C13.6479 10.64 14.2879 10.8 15.1092 10.8C15.9945 10.8 16.6612 10.6453 17.1092 10.336C17.5572 10.016 17.7812 9.57333 17.7812 9.008C17.7812 8.64533 17.6692 8.352 17.4452 8.128C17.2319 7.904 16.9119 7.70667 16.4852 7.536C16.0585 7.36533 15.4185 7.152 14.5652 6.896C13.7332 6.66133 13.0719 6.41067 12.5812 6.144C12.0905 5.87733 11.7225 5.54667 11.4772 5.152C11.2319 4.75733 11.1092 4.26133 11.1092 3.664C11.1092 3.088 11.2639 2.57067 11.5732 2.112C11.8932 1.65333 12.3465 1.296 12.9332 1.04C13.5199 0.773333 14.2185 0.639999 15.0292 0.639999C15.8612 0.639999 16.5759 0.789333 17.1732 1.088C17.7705 1.376 18.2239 1.744 18.5332 2.192C18.8425 2.64 19.0079 3.088 19.0292 3.536C19.0292 3.62133 18.9972 3.696 18.9332 3.76C18.8799 3.824 18.7999 3.856 18.6932 3.856H17.8452C17.6212 3.856 17.4825 3.75467 17.4292 3.552C17.3652 3.104 17.1145 2.736 16.6772 2.448C16.2399 2.14933 15.6905 2 15.0292 2C14.3039 2 13.7332 2.13867 13.3172 2.416C12.9012 2.69333 12.6932 3.104 12.6932 3.648C12.6932 4.01067 12.7892 4.30933 12.9812 4.544C13.1839 4.77867 13.4879 4.98667 13.8932 5.168C14.2985 5.33867 14.8905 5.536 15.6692 5.76C16.5759 6.00533 17.2905 6.26133 17.8132 6.528C18.3359 6.784 18.7252 7.10933 18.9812 7.504C19.2372 7.888 19.3652 8.37867 19.3652 8.976C19.3652 9.968 18.9812 10.7467 18.2132 11.312C17.4452 11.8773 16.4105 12.16 15.1092 12.16ZM21.9675 12C21.8608 12 21.7701 11.968 21.6955 11.904C21.6315 11.8293 21.5995 11.7387 21.5995 11.632V1.184C21.5995 1.06667 21.6315 0.976 21.6955 0.912C21.7701 0.837333 21.8608 0.799999 21.9675 0.799999H25.5995C27.2101 0.799999 28.3728 1.16267 29.0875 1.888C29.8021 2.60267 30.1755 3.68533 30.2075 5.136C30.2181 5.44533 30.2235 5.86133 30.2235 6.384C30.2235 6.90667 30.2181 7.328 30.2075 7.648C30.1755 8.66133 30.0048 9.488 29.6955 10.128C29.3968 10.7573 28.9221 11.2267 28.2715 11.536C27.6208 11.8453 26.7568 12 25.6795 12H21.9675ZM25.5995 10.64C26.3355 10.64 26.9168 10.5387 27.3435 10.336C27.7808 10.1333 28.0955 9.81333 28.2875 9.376C28.4901 8.928 28.6021 8.33067 28.6235 7.584C28.6448 6.944 28.6555 6.544 28.6555 6.384C28.6555 6.21333 28.6448 5.81867 28.6235 5.2C28.6021 4.144 28.3515 3.376 27.8715 2.896C27.3915 2.40533 26.6075 2.16 25.5195 2.16H23.1675V10.64H25.5995Z" fill="url(#paint0_linear)"/>
<defs>
<linearGradient id="paint0_linear" x1="-2" y1="7" x2="32" y2="7" gradientUnits="userSpaceOnUse">
<stop stop-color="#EC6F66"/>
<stop offset="1" stop-color="#F3A183"/>
</linearGradient>
</defs>
</svg>
