<svg width="50" height="50" viewBox="0 0 50 50" fill="none" xmlns="http://www.w3.org/2000/svg">
<path fill-rule="evenodd" clip-rule="evenodd" d="M25 50C38.8071 50 50 38.8071 50 25C50 11.1929 38.8071 0 25 0C11.1929 0 0 11.1929 0 25C0 38.8071 11.1929 50 25 50Z" fill="#F5F5F5"/>
<path fill-rule="evenodd" clip-rule="evenodd" d="M33.1045 19.9698C33.6439 20.5306 33.82 21.8042 33.82 21.8042C33.82 21.8042 34 23.3002 34 24.7956V26.198C34 27.694 33.82 29.1894 33.82 29.1894C33.82 29.1894 33.6439 30.463 33.1045 31.0239C32.4878 31.6873 31.8039 31.7559 31.4174 31.7946C31.3749 31.7989 31.336 31.8028 31.3011 31.8071C28.7822 31.9942 25 32 25 32C25 32 20.32 31.9561 18.88 31.814C18.8118 31.8009 18.7291 31.7907 18.6354 31.7792C18.1793 31.723 17.4633 31.6348 16.8949 31.0239C16.3555 30.463 16.18 29.1894 16.18 29.1894C16.18 29.1894 16 27.694 16 26.198V24.7956C16 23.3002 16.18 21.8042 16.18 21.8042C16.18 21.8042 16.3555 20.5306 16.8949 19.9698C17.513 19.3054 18.1975 19.2376 18.5841 19.1993C18.626 19.1951 18.6644 19.1913 18.6989 19.1871C21.2177 19 24.9961 19 24.9961 19H25.0039C25.0039 19 28.7822 19 31.3011 19.1871C31.3356 19.1913 31.374 19.1951 31.4159 19.1993C31.8022 19.2376 32.487 19.3055 33.1045 19.9698ZM23.1409 22.7041L23.1415 27.8973L28.0043 25.3097L23.1409 22.7041Z" fill="url(#paint0_linear)"/>
<mask id="mask0" mask-type="alpha" maskUnits="userSpaceOnUse" x="16" y="19" width="18" height="13">
<path fill-rule="evenodd" clip-rule="evenodd" d="M33.1045 19.9698C33.6439 20.5306 33.82 21.8042 33.82 21.8042C33.82 21.8042 34 23.3002 34 24.7956V26.198C34 27.694 33.82 29.1894 33.82 29.1894C33.82 29.1894 33.6439 30.463 33.1045 31.0239C32.4878 31.6873 31.8039 31.7559 31.4174 31.7946C31.3749 31.7989 31.336 31.8028 31.3011 31.8071C28.7822 31.9942 25 32 25 32C25 32 20.32 31.9561 18.88 31.814C18.8118 31.8009 18.7291 31.7907 18.6354 31.7792C18.1793 31.723 17.4633 31.6348 16.8949 31.0239C16.3555 30.463 16.18 29.1894 16.18 29.1894C16.18 29.1894 16 27.694 16 26.198V24.7956C16 23.3002 16.18 21.8042 16.18 21.8042C16.18 21.8042 16.3555 20.5306 16.8949 19.9698C17.513 19.3054 18.1975 19.2376 18.5841 19.1993C18.626 19.1951 18.6644 19.1913 18.6989 19.1871C21.2177 19 24.9961 19 24.9961 19H25.0039C25.0039 19 28.7822 19 31.3011 19.1871C31.3356 19.1913 31.374 19.1951 31.4159 19.1993C31.8022 19.2376 32.487 19.3055 33.1045 19.9698ZM23.1409 22.7041L23.1415 27.8973L28.0043 25.3097L23.1409 22.7041Z" fill="white"/>
</mask>
<g mask="url(#mask0)">
<rect x="10" y="10" width="30" height="30" fill="url(#paint1_linear)"/>
</g>
<defs>
<linearGradient id="paint0_linear" x1="16" y1="25.5" x2="34" y2="25.5" gradientUnits="userSpaceOnUse">
<stop stop-color="#EC6F66"/>
<stop offset="1" stop-color="#F3A183"/>
</linearGradient>
<linearGradient id="paint1_linear" x1="10" y1="25" x2="40" y2="25" gradientUnits="userSpaceOnUse">
<stop stop-color="#EC6F66"/>
<stop offset="1" stop-color="#F3A183"/>
</linearGradient>
</defs>
</svg>
